<svg width="22" height="22" viewBox="0 0 22 22" fill="none" xmlns="http://www.w3.org/2000/svg">
<path d="M17.1115 10.1416L7.3212 0.351461C7.09476 0.124845 6.79249 0 6.47018 0C6.14788 0 5.8456 0.124845 5.61917 0.351461L4.89818 1.07227C4.42903 1.54195 4.42903 2.30533 4.89818 2.7743L13.1193 10.9954L4.88906 19.2257C4.66262 19.4523 4.5376 19.7544 4.5376 20.0765C4.5376 20.399 4.66262 20.7011 4.88906 20.9279L5.61004 21.6485C5.83666 21.8752 6.13876 22 6.46106 22C6.78337 22 7.08564 21.8752 7.31208 21.6485L17.1115 11.8495C17.3385 11.6222 17.4631 11.3186 17.4624 10.996C17.4631 10.6721 17.3385 10.3687 17.1115 10.1416Z" fill="black"/>
</svg>
